<svg width="65" height="55" viewBox="0 0 65 55" fill="none" xmlns="http://www.w3.org/2000/svg">
<path d="M44.8147 38.6865C44.3139 38.1959 43.5101 38.2041 43.0193 38.7048L42.9833 38.7416C42.4926 39.2425 42.5009 40.0462 43.0017 40.537C43.2387 40.7699 43.5578 40.9002 43.8901 40.8997C44.059 40.8999 44.2263 40.8663 44.3821 40.8009C44.5378 40.7354 44.6789 40.6395 44.7971 40.5187L44.8331 40.4819C45.3238 39.9811 45.3155 39.1773 44.8147 38.6865ZM58.4714 25.3769H55.0978V22.0032C55.0978 21.3021 54.5294 20.7337 53.8283 20.7337C53.1271 20.7337 52.5587 21.3021 52.5587 22.0032V25.3769H49.1851C48.4839 25.3769 47.9155 25.9453 47.9155 26.6464C47.9155 27.3476 48.4839 27.916 49.1851 27.916H52.5587V31.2896C52.5587 31.9908 53.1271 32.5591 53.8283 32.5591C54.5294 32.5591 55.0978 31.9908 55.0978 31.2896V27.916H58.4714C59.1726 27.916 59.741 27.3476 59.741 26.6464C59.741 25.9453 59.1726 25.3769 58.4714 25.3769Z" fill="#DCE8D9"/>
<path d="M57.9787 16.2744C56.793 7.51085 49.4668 0.953979 40.7709 0.953979C36.3812 0.953979 32.2749 2.59028 29.0723 5.58955C25.8695 2.59028 21.7632 0.953979 17.3737 0.953979C7.79378 0.953979 0 8.93336 0 18.7414C0 20.6792 0.565322 22.8512 1.69 25.2489H1.26953C0.568369 25.2489 0 25.8172 0 26.5184C0 27.2196 0.568369 27.7879 1.26953 27.7879H3.04205C5.41315 31.8022 9.16284 36.367 14.2758 41.451C21.2049 48.3409 28.2309 53.7312 28.3012 53.7849C28.5287 53.9589 28.8005 54.0459 29.0723 54.0459C29.3441 54.0459 29.6158 53.9589 29.8434 53.7849C29.897 53.7439 35.2706 49.6232 41.2257 44.0086C41.736 43.5276 41.7596 42.7241 41.2786 42.214C40.7977 41.7039 39.9942 41.6802 39.4839 42.1612C34.9423 46.4432 30.7494 49.8383 29.0724 51.1647C27.0795 49.5879 21.5314 45.0871 16.0479 39.6325C11.6579 35.2655 8.29715 31.2857 6.02507 27.7879H17.3907C17.6663 27.7879 17.9345 27.6982 18.1546 27.5324C18.3747 27.3665 18.5349 27.1335 18.6109 26.8685L20.8291 19.1368L26.9716 38.8169C27.0522 39.0752 27.2133 39.3009 27.4313 39.4612C27.6493 39.6215 27.9128 39.708 28.1834 39.708C28.454 39.708 28.7175 39.6215 28.9355 39.4612C29.1535 39.3009 29.3146 39.0752 29.3952 38.8169L32.7969 27.915H38.4646C39.1658 27.915 39.7342 27.3466 39.7342 26.6455C39.7342 25.9443 39.1658 25.3759 38.4646 25.3759H31.8632C31.5926 25.3759 31.329 25.4624 31.111 25.6228C30.893 25.7831 30.7319 26.0089 30.6513 26.2673L28.1831 34.1771L21.9896 14.3336C21.9085 14.0726 21.7453 13.8448 21.5243 13.6842C21.3032 13.5236 21.0362 13.4388 20.7629 13.4424C20.4898 13.4455 20.225 13.5367 20.0078 13.7023C19.7906 13.8679 19.6326 14.0992 19.5573 14.3618L16.4338 25.249H4.52258C3.21026 22.7714 2.53906 20.5877 2.53906 18.7414C2.53906 10.3334 9.19382 3.49304 17.3737 3.49304C21.4849 3.49304 25.3082 5.18304 28.1392 8.2515C28.2581 8.38034 28.4023 8.48317 28.5629 8.5535C28.7235 8.62383 28.8969 8.66014 29.0723 8.66014C29.2476 8.66014 29.421 8.62383 29.5816 8.5535C29.7422 8.48317 29.8865 8.38034 30.0054 8.2515C32.8363 5.18304 36.6596 3.49304 40.7709 3.49304C47.843 3.49304 53.8557 8.59326 55.2848 15.5695C54.8018 15.5063 54.3151 15.4745 53.828 15.4745C47.6679 15.4745 42.6561 20.4862 42.6561 26.6464C42.6561 32.8065 47.6679 37.8182 53.828 37.8182C59.9881 37.8182 64.9999 32.8065 64.9999 26.6464C65 21.9522 62.0896 17.9255 57.9787 16.2744ZM53.8281 35.2792C49.068 35.2792 45.1953 31.4065 45.1953 26.6464C45.1953 21.8863 49.068 18.0136 53.8281 18.0136C58.5882 18.0136 62.4609 21.8863 62.4609 26.6464C62.4609 31.4065 58.5882 35.2792 53.8281 35.2792Z" fill="#DCE8D9"/>
</svg>
