<svg width="50" height="50" viewBox="0 0 50 50" fill="none" xmlns="http://www.w3.org/2000/svg">
<path fill-rule="evenodd" clip-rule="evenodd" d="M25.0068 45.3352C20.3027 45.2023 15.817 42.532 11.5498 37.3245C11.7186 55.2578 31.9786 51.4678 42.2715 42.449C24.3863 46.2506 16.5581 23.4007 11.8695 35.3513C15.6971 39.5266 20.0763 42.8546 25.0068 45.3352ZM5.412 26.0441C6.00522 18.5737 9.90446 12.2611 17.1098 7.10627C-2.50391 4.14049 -5.24664 31.3626 8.84067 44.2325C4.86879 24.7413 35.7726 15.4497 19.9334 7.31063C12.8388 13.862 7.99835 20.1065 5.412 26.0441ZM9.16557 5.47995C31.5821 -1.4117 31.4114 35.1051 43.2914 21.4706C39.7383 14.1538 35.8189 8.77877 31.533 5.34561C38.3063 9.29975 42.4467 13.9581 43.9545 19.3205C50.3368 3.00689 24.2692 -6.71601 9.16557 5.47995ZM47.5792 14.5279C54.8354 29.9028 44.8923 47.0943 29.5438 39.1632C36.2256 38.7074 41.1764 36.0348 44.3965 31.1455C38.6078 35.1442 33.2295 37.5032 28.2619 38.2226C21.8515 23.0607 46.1068 34.4985 47.5792 14.5279Z" fill="#DCE8D9"/>
</svg>
